<svg width="200" height="320" viewBox="0 0 200 320" fill="none" xmlns="http://www.w3.org/2000/svg">
<mask id="mask0" mask-type="alpha" maskUnits="userSpaceOnUse" x="0" y="0" width="200" height="320">
<path d="M200 299L200 21C200 9.40202 190.598 -4.10975e-07 179 -9.17939e-07L21 -7.82434e-06C9.40203 -8.3313e-06 7.21842e-06 9.40201 6.71146e-06 21L-5.44031e-06 299C-5.94727e-06 310.598 9.40202 320 21 320L179 320C190.598 320 200 310.598 200 299Z" fill="white"/>
</mask>
<g mask="url(#mask0)">
<path d="M200 299L200 21C200 9.40202 190.598 -4.10975e-07 179 -9.17939e-07L21 -7.82434e-06C9.40203 -8.3313e-06 7.21842e-06 9.40201 6.71146e-06 21L-5.44031e-06 299C-5.94727e-06 310.598 9.40202 320 21 320L179 320C190.598 320 200 310.598 200 299Z" fill="url(#paint0_linear)"/>
<path style="mix-blend-mode:soft-light" opacity="0.7" fill-rule="evenodd" clip-rule="evenodd" d="M260 314C152.906 284.161 81.4214 245.129 45.547 196.905C9.67261 148.68 -5.00985 77.3787 1.49965 -17L260 -17L260 314Z" fill="url(#paint1_linear)"/>
<g style="mix-blend-mode:overlay" opacity="0.4">
<path fill-rule="evenodd" clip-rule="evenodd" d="M260 394C152.906 357.85 81.4214 310.564 45.547 252.141C9.6726 193.718 -5.00986 107.338 1.49964 -7.00001L260 -7L260 394Z" fill="url(#paint2_linear)" style="mix-blend-mode:soft-light"/>
</g>
<path style="mix-blend-mode:soft-light" opacity="0.6" fill-rule="evenodd" clip-rule="evenodd" d="M296.378 232.405C203.719 235.31 135.173 219.376 90.7384 184.603C46.3038 149.83 10.0487 87.3835 -18.0268 -2.73764L180.389 -77.0959L296.378 232.405Z" fill="url(#paint3_linear)"/>
</g>
<path d="M137.2 30.016C137.2 31.4453 136.859 32.5653 136.176 33.376C135.493 34.1867 134.555 34.592 133.36 34.592C132.165 34.592 131.227 34.1867 130.544 33.376C129.872 32.5653 129.536 31.4453 129.536 30.016L129.536 27.008L126 27.008L126 25.824L137.2 25.824L137.2 30.016ZM130.576 29.984C130.576 31.0933 130.816 31.9413 131.296 32.528C131.787 33.1147 132.475 33.408 133.36 33.408C134.267 33.408 134.96 33.1147 135.44 32.528C135.931 31.9413 136.176 31.0933 136.176 29.984L136.176 27.008L130.576 27.008L130.576 29.984ZM137.872 37.3724L137.872 38.5084L126 38.5084L126 37.3724L137.872 37.3724ZM134.48 44.9172C134.48 46.0159 134.203 46.8586 133.648 47.4452C133.104 48.0319 132.293 48.3252 131.216 48.3252L126 48.3252L126 47.2372L127.312 47.2372C126.875 46.9812 126.533 46.6026 126.288 46.1012C126.043 45.6106 125.92 45.0239 125.92 44.3412C125.92 43.4026 126.144 42.6559 126.592 42.1012C127.04 41.5466 127.632 41.2692 128.368 41.2692C129.083 41.2692 129.659 41.5252 130.096 42.0372C130.533 42.5599 130.752 43.3866 130.752 44.5172L130.752 47.1892L131.264 47.1892C131.989 47.1892 132.539 46.9866 132.912 46.5812C133.296 46.1759 133.488 45.5839 133.488 44.8052C133.488 44.2719 133.397 43.7599 133.216 43.2692C133.045 42.7786 132.805 42.3572 132.496 42.0052L133.344 41.4932C133.707 41.9199 133.984 42.4319 134.176 43.0292C134.379 43.6266 134.48 44.2559 134.48 44.9172ZM126.816 44.5172C126.816 45.1572 126.96 45.7066 127.248 46.1652C127.547 46.6239 127.973 46.9652 128.528 47.1892L129.904 47.1892L129.904 44.5492C129.904 43.1092 129.403 42.3892 128.4 42.3892C127.909 42.3892 127.52 42.5759 127.232 42.9492C126.955 43.3226 126.816 43.8452 126.816 44.5172ZM126.512 56.1468C126.32 55.9334 126.171 55.6667 126.064 55.3467C125.968 55.0374 125.92 54.7121 125.92 54.3708C125.92 53.5814 126.133 52.9734 126.56 52.5468C126.987 52.1201 127.589 51.9068 128.368 51.9068L133.456 51.9068L133.456 50.4028L134.416 50.4028L134.416 51.9068L136.256 51.9068L136.256 53.0428L134.416 53.0428L134.416 55.6028L133.456 55.6028L133.456 53.0428L128.432 53.0428C127.931 53.0428 127.547 53.1654 127.28 53.4108C127.024 53.6668 126.896 54.0294 126.896 54.4987C126.896 54.7334 126.933 54.9574 127.008 55.1708C127.083 55.3948 127.189 55.5868 127.328 55.7468L126.512 56.1468ZM134.416 58.5187L134.416 59.6547L126 59.6547L126 58.5187L134.416 58.5187ZM136.256 59.0947C136.256 58.8601 136.336 58.6627 136.496 58.5027C136.656 58.3427 136.848 58.2627 137.072 58.2627C137.285 58.2627 137.472 58.3427 137.632 58.5027C137.792 58.6627 137.872 58.8601 137.872 59.0947C137.872 59.3294 137.792 59.5267 137.632 59.6867C137.483 59.8467 137.301 59.9267 137.088 59.9267C136.853 59.9267 136.656 59.8467 136.496 59.6867C136.336 59.5267 136.256 59.3294 136.256 59.0947ZM134.48 67.4076C134.48 68.4636 134.171 69.301 133.552 69.9196C132.944 70.549 132.053 70.8636 130.88 70.8636L126 70.8636L126 69.7276L130.768 69.7276C131.643 69.7276 132.309 69.509 132.768 69.0716C133.227 68.6343 133.456 68.0103 133.456 67.1996C133.456 66.293 133.184 65.573 132.64 65.0396C132.107 64.517 131.365 64.2556 130.416 64.2556L126 64.2556L126 63.1196L134.416 63.1196L134.416 64.2076L132.864 64.2076C133.376 64.517 133.771 64.9436 134.048 65.4876C134.336 66.0423 134.48 66.6823 134.48 67.4076ZM134.416 81.8358L126 81.8358L126 80.7478L127.536 80.7478C127.024 80.4491 126.624 80.0384 126.336 79.5158C126.059 78.9931 125.92 78.3958 125.92 77.7238C125.92 76.6251 126.224 75.7558 126.832 75.1158C127.451 74.4864 128.352 74.1718 129.536 74.1718L134.416 74.1718L134.416 75.3078L129.648 75.3078C128.763 75.3078 128.091 75.5264 127.632 75.9638C127.173 76.4011 126.944 77.0251 126.944 77.8358C126.944 78.7211 127.211 79.4198 127.744 79.9318C128.288 80.4438 129.04 80.6998 130 80.6998L134.416 80.6998L134.416 81.8358ZM134.48 95.8174C134.48 96.8734 134.176 97.7 133.568 98.2974C132.96 98.9054 132.064 99.2094 130.88 99.2094L126 99.2094L126 98.0734L130.768 98.0734C131.643 98.0734 132.309 97.86 132.768 97.4334C133.227 97.0174 133.456 96.4254 133.456 95.6574C133.456 94.7827 133.184 94.0947 132.64 93.5934C132.107 93.092 131.365 92.8414 130.416 92.8414L126 92.8414L126 91.7054L130.768 91.7054C131.643 91.7054 132.309 91.492 132.768 91.0654C133.227 90.6494 133.456 90.052 133.456 89.2734C133.456 88.4094 133.184 87.7214 132.64 87.2094C132.107 86.708 131.365 86.4574 130.416 86.4574L126 86.4574L126 85.3214L134.416 85.3214L134.416 86.4094L132.88 86.4094C133.392 86.708 133.787 87.124 134.064 87.6574C134.341 88.1907 134.48 88.804 134.48 89.4974C134.48 90.2014 134.331 90.8094 134.032 91.3214C133.733 91.844 133.291 92.2334 132.704 92.4894C133.259 92.7987 133.691 93.2414 134 93.8174C134.32 94.404 134.48 95.0707 134.48 95.8174Z" fill="white"/>
<path d="M33.904 27.264C33.904 26.784 34.016 26.3413 34.24 25.936C34.4747 25.5307 34.7947 25.2107 35.2 24.976C35.6053 24.752 36.0587 24.64 36.56 24.64C37.0613 24.64 37.5093 24.752 37.904 24.976C38.3093 25.2107 38.624 25.5253 38.848 25.92C39.072 26.3253 39.184 26.7733 39.184 27.264C39.184 27.7547 39.072 28.2027 38.848 28.608C38.624 29.0133 38.3093 29.3333 37.904 29.568C37.5093 29.8027 37.0613 29.92 36.56 29.92C36.0587 29.92 35.6053 29.8027 35.2 29.568C34.7947 29.3333 34.4747 29.0133 34.24 28.608C34.016 28.2027 33.904 27.7547 33.904 27.264ZM33.904 39.2314C33.904 38.7514 34.016 38.3087 34.24 37.9034C34.4747 37.498 34.7947 37.178 35.2 36.9434C35.6053 36.7194 36.0587 36.6074 36.56 36.6074C37.0613 36.6074 37.5093 36.7194 37.904 36.9434C38.3093 37.178 38.624 37.4927 38.848 37.8874C39.072 38.2927 39.184 38.7407 39.184 39.2314C39.184 39.722 39.072 40.17 38.848 40.5754C38.624 40.9807 38.3093 41.3007 37.904 41.5354C37.5093 41.77 37.0613 41.8874 36.56 41.8874C36.0587 41.8874 35.6053 41.77 35.2 41.5354C34.7947 41.3007 34.4747 40.9807 34.24 40.5754C34.016 40.17 33.904 39.722 33.904 39.2314ZM33.904 51.1987C33.904 50.7187 34.016 50.2761 34.24 49.8707C34.4747 49.4654 34.7947 49.1454 35.2 48.9107C35.6053 48.6867 36.0587 48.5747 36.56 48.5747C37.0613 48.5747 37.5093 48.6867 37.904 48.9107C38.3093 49.1454 38.624 49.4601 38.848 49.8547C39.072 50.2601 39.184 50.7081 39.184 51.1987C39.184 51.6894 39.072 52.1374 38.848 52.5427C38.624 52.9481 38.3093 53.2681 37.904 53.5027C37.5093 53.7374 37.0613 53.8547 36.56 53.8547C36.0587 53.8547 35.6053 53.7374 35.2 53.5027C34.7947 53.2681 34.4747 52.9481 34.24 52.5427C34.016 52.1374 33.904 51.6894 33.904 51.1987ZM33.904 63.1661C33.904 62.6861 34.016 62.2435 34.24 61.8381C34.4747 61.4328 34.7947 61.1128 35.2 60.8781C35.6053 60.6541 36.0587 60.5421 36.56 60.5421C37.0613 60.5421 37.5093 60.6541 37.904 60.8781C38.3093 61.1128 38.624 61.4275 38.848 61.8221C39.072 62.2275 39.184 62.6755 39.184 63.1661C39.184 63.6568 39.072 64.1048 38.848 64.5101C38.624 64.9155 38.3093 65.2355 37.904 65.4701C37.5093 65.7048 37.0613 65.8221 36.56 65.8221C36.0587 65.8221 35.6053 65.7048 35.2 65.4701C34.7947 65.2355 34.4747 64.9155 34.24 64.5101C34.016 64.1048 33.904 63.6568 33.904 63.1661Z" fill="white"/>
<path d="M30.856 79.8C30.856 78.488 31.352 77.4853 32.344 76.792C33.3467 76.1093 34.7813 75.768 36.648 75.768C38.5467 75.768 39.9813 76.1093 40.952 76.792C41.9333 77.4853 42.424 78.488 42.424 79.8C42.424 81.1227 41.9333 82.1253 40.952 82.808C39.9813 83.4907 38.552 83.832 36.664 83.832C34.7867 83.832 33.3467 83.4853 32.344 82.792C31.352 82.1093 30.856 81.112 30.856 79.8ZM32.232 79.8C32.232 80.6107 32.5893 81.2133 33.304 81.608C34.0187 82.0027 35.1387 82.2 36.664 82.2C38.1893 82.2 39.2987 82.0027 39.992 81.608C40.696 81.224 41.048 80.6213 41.048 79.8C41.048 78.9893 40.696 78.3867 39.992 77.992C39.288 77.5973 38.1787 77.4 36.664 77.4C35.1387 77.4 34.0187 77.5973 33.304 77.992C32.5893 78.3867 32.232 78.9893 32.232 79.8ZM31 87.5537L32.232 87.5537L36.264 91.3137C36.8293 91.8364 37.3413 92.2097 37.8 92.4337C38.2587 92.6684 38.7227 92.7857 39.192 92.7857C40.408 92.7857 41.016 92.0711 41.016 90.6417C41.016 89.5537 40.6053 88.5777 39.784 87.7137L41.048 87.1217C41.464 87.5484 41.7947 88.0924 42.04 88.7537C42.296 89.4151 42.424 90.1031 42.424 90.8177C42.424 91.9804 42.1573 92.8711 41.624 93.4897C41.0907 94.1191 40.328 94.4337 39.336 94.4337C38.664 94.4337 38.008 94.2684 37.368 93.9377C36.728 93.6177 36.0453 93.1111 35.32 92.4177L32.392 89.6337L32.392 94.8817L31 94.8817L31 87.5537ZM31 99.2595L32.392 99.2595L32.392 101.819L40.36 101.819L39.112 99.8195L40.344 99.1475L42.28 102.299L42.28 103.467L32.392 103.467L32.392 105.867L31 105.867L31 99.2595ZM31 109.941L32.232 109.941L36.264 113.701C36.8293 114.224 37.3413 114.597 37.8 114.821C38.2587 115.056 38.7227 115.173 39.192 115.173C40.408 115.173 41.016 114.459 41.016 113.029C41.016 111.941 40.6053 110.965 39.784 110.101L41.048 109.509C41.464 109.936 41.7947 110.48 42.04 111.141C42.296 111.803 42.424 112.491 42.424 113.205C42.424 114.368 42.1573 115.259 41.624 115.877C41.0907 116.507 40.328 116.821 39.336 116.821C38.664 116.821 38.008 116.656 37.368 116.325C36.728 116.005 36.0453 115.499 35.32 114.805L32.392 112.021L32.392 117.269L31 117.269L31 109.941Z" fill="white"/>
<path d="M173.433 49.4077L173.433 38.5923L154.567 38.5923L154.567 49.4077L173.433 49.4077Z" fill="#FF5F00"/>
<path d="M164 39.279C167.833 39.279 171.233 41.133 173.433 43.9828C175.033 41.8884 176 39.2446 176 36.3605C176 29.5279 170.633 24 164 24C157.367 24 152 29.5279 152 36.3605C152 39.2446 152.967 41.8884 154.567 43.9828C156.733 41.133 160.167 39.279 164 39.279Z" fill="#EB001B"/>
<path d="M164 64C157.367 64 152 58.4721 152 51.6395C152 48.7554 152.967 46.1116 154.567 44.0172C156.767 46.9013 160.167 48.721 164 48.721C167.833 48.721 171.233 46.867 173.433 44.0172C175.033 46.1116 176 48.7554 176 51.6395C176 58.4721 170.6 64 164 64Z" fill="#F79E1B"/>
<defs>
<linearGradient id="paint0_linear" x1="200" y1="335" x2="187.943" y2="-5.74785" gradientUnits="userSpaceOnUse">
<stop offset="0.133662" stop-color="#4A5055"/>
<stop offset="1" stop-color="#111318"/>
</linearGradient>
<linearGradient id="paint1_linear" x1="76.6706" y1="-25.886" x2="296.781" y2="183.744" gradientUnits="userSpaceOnUse">
<stop stop-color="#EEEEEE"/>
<stop offset="1" stop-color="#D8D8D8" stop-opacity="0"/>
</linearGradient>
<linearGradient id="paint2_linear" x1="76.6706" y1="-17.7652" x2="336.1" y2="186.181" gradientUnits="userSpaceOnUse">
<stop stop-color="#EEEEEE"/>
<stop offset="1" stop-color="#D8D8D8" stop-opacity="0"/>
</linearGradient>
<linearGradient id="paint3_linear" x1="36.5581" y1="-32.6696" x2="295.116" y2="48.726" gradientUnits="userSpaceOnUse">
<stop stop-color="#EEEEEE"/>
<stop offset="1" stop-color="#D8D8D8" stop-opacity="0"/>
</linearGradient>
</defs>
</svg>
